# xmcd
#
# Track frame offsets: 
#        150
#        26337
#        41075
#        57855
#        75462
#        93310
#        110312
#        125975
#        151292
#        167112
#        191900
#        212580
#        226980
#        243592
#        267850
#        284712
#        298050
#        317725
#
# Disc length: 4338 seconds
#
# Revision: 0
# Processed by: cddbd v1.5.2PL0 Copyright (c) Steve Scherf et al.
# Submitted via: ExactAudioCopy v1.0b6
#
DISCID=0710f012
DTITLE=小室等 - 時間(とき)のパスポート
DYEAR=1996
DGENRE=
TTITLE0=国境のアゼルバイジャン・コニャック 
TTITLE1=朝八時
TTITLE2=いたずらがき 
TTITLE3=赤いクーペ 
TTITLE4=OVER THE RAINBOW 
TTITLE5=あの日 輝いていたきみに 
TTITLE6=ぽつねん 
TTITLE7=ベラルーシの少女 
TTITLE8=雨のベラルーシ 
TTITLE9=ウォーキング・マンディ・モーニング 
TTITLE10=遠い昔の春の日の
TTITLE11=青空に問いかけて 
TTITLE12=結詞 
TTITLE13=ぼくたちのラストダンス 
TTITLE14=翼 
TTITLE15=雨が空から降れば(ボーナス・トラック) 
TTITLE16=守らずにいられない(ボーナス・トラック) 
TTITLE17=夕暮れに(ボーナス・トラック) 
EXTD=
EXTT0=
EXTT1=
EXTT2=
EXTT3=
EXTT4=
EXTT5=
EXTT6=
EXTT7=
EXTT8=
EXTT9=
EXTT10=
EXTT11=
EXTT12=
EXTT13=
EXTT14=
EXTT15=
EXTT16=
EXTT17=
PLAYORDER=
